<svg xmlns="http://www.w3.org/2000/svg" xmlns:xlink="http://www.w3.org/1999/xlink" xmlns:ifc="http://www.ifcopenshell.org/ns" width="1000mm" height="1000mm" viewBox="0 0 1000 1000">
    <defs>
        <marker id="arrowend" markerWidth="10" markerHeight="7" refX="10" refY="3.5" orient="auto">
          <polygon points="0 0, 10 3.5, 0 7"/>
        </marker>
        <marker id="arrowstart" markerWidth="10" markerHeight="7" refX="0" refY="3.5" orient="auto">
          <polygon points="10 0, 0 3.5, 10 7"/>
        </marker>
    </defs>
    <g ifc:name="Elevation PLAN_VIEW" class="section" ifc:plane="[[1.000000,0.000000,0.000000,0.000000],[0.000000,1.000000,0.000000,0.000000],[0.000000,0.000000,1.000000,0.000000],[0.000000,0.000000,0.000000,1.000000]]" ifc:matrix3="[[200.000003,0.000000,500.000027],[0.000000,200.000003,500.000027],[0.000000,0.000000,1.000000]]">
        <g id="product-23c39ed8-5ac9-4f27-8ac8-c809e79b6fc3" class="IfcMechanicalFastener material-null projection" ifc:name="PROJECTION_curve_" ifc:guid="0ZmvxOMibF9uh8o0ddcs$3">
            <path d="M614.065,338.844 L614.065,338.894"/>
            <path d="M614.067,338.796 L614.065,338.844"/>
            <path d="M614.069,338.748 L614.067,338.796"/>
            <path d="M614.073,338.7 L614.069,338.748"/>
            <path d="M614.077,338.654 L614.073,338.7"/>
            <path d="M614.083,338.607 L614.077,338.654"/>
            <path d="M614.089,338.561 L614.083,338.607"/>
            <path d="M614.097,338.515 L614.089,338.561"/>
            <path d="M614.106,338.468 L614.097,338.515"/>
            <path d="M614.116,338.421 L614.106,338.468"/>
            <path d="M614.127,338.374 L614.116,338.421"/>
            <path d="M614.14,338.325 L614.127,338.374"/>
            <path d="M615.285,333.84 L615.229,333.84"/>
            <path d="M616.457,316.147 L616.457,317.75"/>
            <path d="M615.229,337.163 L614.095,337.163"/>
            <path d="M616.419,337.163 L615.285,337.163"/>
            <path d="M616.457,329.15 L616.457,320.25"/>
            <path d="M614.057,329.15 L616.457,329.15"/>
            <path d="M614.057,320.25 L614.057,329.15"/>
            <path d="M616.319,337.529 L615.285,337.529"/>
            <path d="M616.354,319.75 L616.354,317.75"/>
            <path d="M614.16,319.75 L614.16,317.75"/>
            <path d="M615.285,337.092 L615.229,337.092"/>
            <path d="M613.063,317.75 L613.063,319.75"/>
            <path d="M617.451,317.75 L613.063,317.75"/>
            <path d="M617.451,319.75 L617.451,317.75"/>
            <path d="M614.19,337.509 L614.171,337.492"/>
            <path d="M614.195,337.529 L614.19,337.509"/>
            <path d="M614.109,337.379 L614.095,337.41"/>
            <path d="M614.186,337.331 L614.194,337.313"/>
            <path d="M616.33,337.239 L616.32,337.257"/>
            <path d="M614.079,333.778 L614.096,333.789"/>
            <path d="M614.067,333.75 L614.079,333.778"/>
            <path d="M616.437,333.282 L616.399,333.267"/>
            <path d="M616.447,333.309 L616.437,333.282"/>
            <path d="M614.077,333.282 L614.067,333.309"/>
            <path d="M614.103,333.269 L614.077,333.282"/>
            <path d="M614.114,337.482 L614.095,337.453"/>
            <path d="M614.133,337.488 L614.114,337.482"/>
            <path d="M615.229,337.488 L614.133,337.488"/>
            <path d="M614.171,337.492 L615.229,337.488"/>
            <path d="M614.133,337.488 L614.171,337.492"/>
            <path d="M614.192,333.17 L616.322,333.17"/>
            <path d="M615.229,337.198 L614.115,337.198"/>
            <path d="M614.175,337.233 L615.229,337.233"/>
            <path d="M614.14,338.325 L614.283,337.79"/>
            <path d="M616.374,338.325 L614.14,338.325"/>
            <path d="M615.285,337.448 L616.418,337.453"/>
            <path d="M616.416,337.396 L615.285,337.41"/>
            <path d="M614.057,317.75 L614.057,316.147"/>
            <path d="M616.438,333.774 L616.422,333.787"/>
            <path d="M616.446,333.755 L616.438,333.774"/>
            <path d="M616.447,333.309 L616.446,333.755"/>
            <path d="M614.067,333.309 L616.447,333.309"/>
            <path d="M614.067,333.75 L614.067,333.309"/>
            <path d="M616.446,333.755 L614.067,333.75"/>
            <path d="M614.194,337.313 L614.195,337.267"/>
            <path d="M615.229,337.306 L614.194,337.313"/>
            <path d="M616.419,337.163 L616.402,337.196"/>
            <path d="M616.422,333.787 L616.419,337.163"/>
            <path d="M614.096,333.789 L616.422,333.787"/>
            <path d="M614.095,337.163 L614.096,333.789"/>
            <path d="M614.1,337.183 L614.095,337.163"/>
            <path d="M614.115,337.198 L614.1,337.183"/>
            <path d="M614.175,337.233 L614.115,337.198"/>
            <path d="M614.19,337.247 L614.175,337.233"/>
            <path d="M614.195,337.267 L614.19,337.247"/>
            <path d="M615.229,337.267 L614.195,337.267"/>
            <path d="M614.347,314.75 L614.347,315.279"/>
            <path d="M616.167,314.75 L614.347,314.75"/>
            <path d="M616.167,315.279 L616.167,314.75"/>
            <path d="M612.857,319.75 L612.857,320.25"/>
            <path d="M617.657,319.75 L612.857,319.75"/>
            <path d="M617.657,320.25 L617.657,319.75"/>
            <path d="M612.857,320.25 L617.657,320.25"/>
            <path d="M614.195,337.529 L614.195,337.764"/>
            <path d="M615.229,337.529 L614.195,337.529"/>
            <path d="M614.192,333.17 L614.192,329.15"/>
            <path d="M614.185,333.206 L614.192,333.17"/>
            <path d="M614.174,333.228 L614.185,333.206"/>
            <path d="M614.158,333.245 L614.174,333.228"/>
            <path d="M614.138,333.259 L614.158,333.245"/>
            <path d="M614.103,333.269 L614.138,333.259"/>
            <path d="M616.399,333.267 L614.103,333.269"/>
            <path d="M616.376,333.259 L616.399,333.267"/>
            <path d="M616.356,333.245 L616.376,333.259"/>
            <path d="M616.34,333.228 L616.356,333.245"/>
            <path d="M616.329,333.206 L616.34,333.228"/>
            <path d="M616.322,333.17 L616.329,333.206"/>
            <path d="M616.322,329.15 L616.322,333.17"/>
            <path d="M615.285,337.76 L616.319,337.76"/>
            <path d="M616.33,337.239 L615.285,337.233"/>
            <path d="M616.402,337.196 L616.33,337.239"/>
            <path d="M615.285,337.198 L616.402,337.196"/>
            <path d="M614.095,337.41 L615.229,337.41"/>
            <path d="M614.095,337.453 L614.095,337.41"/>
            <path d="M615.229,337.448 L614.095,337.453"/>
            <path d="M615.285,337.488 L616.352,337.489"/>
            <path d="M616.38,337.488 L615.285,337.488"/>
            <path d="M614.195,337.764 L615.229,337.76"/>
            <path d="M614.21,337.786 L614.195,337.764"/>
            <path d="M615.229,337.79 L614.21,337.786"/>
            <path d="M615.229,333.79 L615.229,337.79"/>
            <path d="M615.285,337.375 L616.405,337.379"/>
            <path d="M614.109,337.379 L615.229,337.375"/>
            <path d="M614.186,337.331 L614.109,337.379"/>
            <path d="M615.229,337.351 L614.186,337.331"/>
            <path d="M615.285,337.351 L615.229,337.351"/>
            <path d="M616.336,337.338 L615.285,337.351"/>
            <path d="M616.183,315.394 L616.191,315.416"/>
            <path d="M616.177,315.371 L616.183,315.394"/>
            <path d="M616.173,315.349 L616.177,315.371"/>
            <path d="M616.169,315.327 L616.173,315.349"/>
            <path d="M616.167,315.303 L616.169,315.327"/>
            <path d="M616.167,315.279 L616.167,315.303"/>
            <path d="M614.347,315.279 L616.167,315.279"/>
            <path d="M614.346,315.303 L614.347,315.279"/>
            <path d="M614.343,315.338 L614.346,315.303"/>
            <path d="M614.339,315.36 L614.343,315.338"/>
            <path d="M614.334,315.382 L614.339,315.36"/>
            <path d="M614.323,315.416 L614.334,315.382"/>
            <path d="M614.057,316.147 L614.323,315.416"/>
            <path d="M616.457,316.147 L614.057,316.147"/>
            <path d="M616.191,315.416 L616.457,316.147"/>
            <path d="M614.323,315.416 L616.191,315.416"/>
            <path d="M615.285,337.79 L615.285,333.79"/>
            <path d="M616.289,337.79 L615.285,337.79"/>
            <path d="M616.31,337.781 L616.289,337.79"/>
            <path d="M616.319,337.76 L616.31,337.781"/>
            <path d="M616.319,337.529 L616.319,337.76"/>
            <path d="M616.334,337.497 L616.319,337.529"/>
            <path d="M616.352,337.489 L616.334,337.497"/>
            <path d="M616.38,337.488 L616.352,337.489"/>
            <path d="M616.404,337.479 L616.38,337.488"/>
            <path d="M616.418,337.453 L616.404,337.479"/>
            <path d="M616.416,337.396 L616.418,337.453"/>
            <path d="M616.405,337.379 L616.416,337.396"/>
            <path d="M616.336,337.338 L616.405,337.379"/>
            <path d="M616.319,337.309 L616.336,337.338"/>
            <path d="M614.065,339.39 L616.449,339.39"/>
            <path d="M616.374,338.325 L616.23,337.79"/>
            <path d="M616.386,338.374 L616.374,338.325"/>
            <path d="M616.398,338.421 L616.386,338.374"/>
            <path d="M616.408,338.468 L616.398,338.421"/>
            <path d="M616.417,338.515 L616.408,338.468"/>
            <path d="M616.424,338.561 L616.417,338.515"/>
            <path d="M616.431,338.607 L616.424,338.561"/>
            <path d="M616.437,338.654 L616.431,338.607"/>
            <path d="M616.441,338.7 L616.437,338.654"/>
            <path d="M616.444,338.748 L616.441,338.7"/>
            <path d="M616.447,338.796 L616.444,338.748"/>
            <path d="M616.448,338.844 L616.447,338.796"/>
            <path d="M616.449,338.894 L616.448,338.844"/>
            <path d="M614.065,338.894 L616.449,338.894"/>
            <path d="M614.065,339.39 L614.065,338.894"/>
            <path d="M614.068,339.439 L614.065,339.39"/>
            <path d="M614.078,339.486 L614.068,339.439"/>
            <path d="M614.093,339.53 L614.078,339.486"/>
            <path d="M614.114,339.572 L614.093,339.53"/>
            <path d="M614.14,339.61 L614.114,339.572"/>
            <path d="M614.17,339.645 L614.14,339.61"/>
            <path d="M614.205,339.675 L614.17,339.645"/>
            <path d="M614.243,339.701 L614.205,339.675"/>
            <path d="M614.285,339.722 L614.243,339.701"/>
            <path d="M614.329,339.737 L614.285,339.722"/>
            <path d="M614.376,339.747 L614.329,339.737"/>
            <path d="M614.425,339.75 L614.376,339.747"/>
            <path d="M616.089,339.75 L614.425,339.75"/>
            <path d="M616.138,339.747 L616.089,339.75"/>
            <path d="M616.184,339.737 L616.138,339.747"/>
            <path d="M616.229,339.722 L616.184,339.737"/>
            <path d="M616.27,339.701 L616.229,339.722"/>
            <path d="M616.309,339.675 L616.27,339.701"/>
            <path d="M616.343,339.645 L616.309,339.675"/>
            <path d="M616.374,339.61 L616.343,339.645"/>
            <path d="M616.4,339.572 L616.374,339.61"/>
            <path d="M616.421,339.53 L616.4,339.572"/>
            <path d="M616.436,339.486 L616.421,339.53"/>
            <path d="M616.446,339.439 L616.436,339.486"/>
            <path d="M616.449,339.39 L616.446,339.439"/>
            <path d="M616.449,338.894 L616.449,339.39"/>
            <path d="M616.32,337.257 L615.285,337.267"/>
            <path d="M616.319,337.309 L616.32,337.257"/>
            <path d="M615.285,337.306 L616.319,337.309"/>
        </g>
    </g>
</svg>